<svg xmlns="http://www.w3.org/2000/svg" width="26.449" height="26.446" viewBox="0 0 26.449 26.446">
  <path id="Left" d="M1510.539,900.35a13.223,13.223,0,1,1-13.224,13.223A13.224,13.224,0,0,1,1510.539,900.35Zm0,23.968a10.744,10.744,0,1,0-10.745-10.745A10.757,10.757,0,0,0,1510.539,924.317Zm1.228-16.2,0,0a1.236,1.236,0,1,1,1.671,1.821l0,0-3.962,3.632,3.962,3.632,0,0a1.236,1.236,0,1,1-1.671,1.821l0,0-4.959-4.545a1.24,1.24,0,0,1,0-1.828Z" transform="translate(-1497.314 -900.35)" fill="#fff"/>
</svg>
