<svg xmlns="http://www.w3.org/2000/svg" width="26.449" height="26.446" viewBox="0 0 26.449 26.446">
  <path id="Right" d="M1510.539,840.244a13.223,13.223,0,1,1,13.224-13.223A13.225,13.225,0,0,1,1510.539,840.244Zm0-23.968a10.744,10.744,0,1,0,10.745,10.744A10.757,10.757,0,0,0,1510.539,816.276Zm-1.228,16.2,0,0a1.236,1.236,0,1,1-1.671-1.821l0,0,3.963-3.632-3.963-3.632,0,0a1.236,1.236,0,1,1,1.671-1.821l0,0,4.959,4.546a1.239,1.239,0,0,1,0,1.827Z" transform="translate(-1497.314 -813.797)" fill="#fff"/>
</svg>
