<svg width="42" height="42" xmlns="http://www.w3.org/2000/svg" xmlns:xlink="http://www.w3.org/1999/xlink" xmlns:svgjs="http://svgjs.com/svgjs" viewBox="0.001 0 41.999 42" fill="#f14921"><svg xmlns="http://www.w3.org/2000/svg" width="42" height="42" viewBox="1.001 2 40.999 41"><path paint-order="stroke fill markers" fill-rule="evenodd" d="M21.5 43C10.196 43 1 33.803 1 22.5 1 11.195 10.197 2 21.5 2S42 11.196 42 22.5C42 33.802 32.803 43 21.5 43zm0-38.658c-10.013 0-18.158 8.146-18.158 18.157 0 10.012 8.145 18.157 18.158 18.157 10.011 0 18.156-8.145 18.156-18.157 0-10.011-8.145-18.157-18.156-18.157zm8.083 19.328H13.417a1.171 1.171 0 1 1 0-2.343h16.166a1.172 1.172 0 0 1 0 2.343zM21.5 31.753a1.172 1.172 0 0 1-1.172-1.17V14.415a1.172 1.172 0 0 1 2.343 0v16.166a1.17 1.17 0 0 1-1.171 1.171z"/></svg></svg>