<svg width="20" height="27" xmlns="http://www.w3.org/2000/svg" xmlns:xlink="http://www.w3.org/1999/xlink" xmlns:svgjs="http://svgjs.com/svgjs" viewBox="0.224 0 19.552 27" fill="#1a1b1c"><svg xmlns="http://www.w3.org/2000/svg" width="20" height="27" viewBox="1.954 1.919 18 24.856"><path paint-order="stroke fill markers" fill-rule="evenodd" d="M17.499 17.176v-.825h-.818v1.28l.204.117c1.388.788 2.25 2.25 2.25 3.815a4.33 4.33 0 0 1-1.38 3.177 4.504 4.504 0 0 1-3.296 1.23c-2.33-.088-4.27-2.019-4.322-4.304-.038-1.608.824-3.11 2.249-3.918l.204-.116V4.725c0-1.105.917-2.004 2.045-2.004s2.046.899 2.046 2.004v2.806h.818V4.725c0-1.547-1.285-2.806-2.864-2.806-1.578 0-2.863 1.259-2.863 2.806v12.45c-1.561.98-2.497 2.687-2.454 4.51.064 2.7 2.356 4.982 5.11 5.086a5.332 5.332 0 0 0 3.896-1.453 5.119 5.119 0 0 0 1.63-3.755c0-1.772-.935-3.432-2.455-4.387zM14.635 3.523c-.676 0-1.227.54-1.227 1.202v13.438c-1.7.583-2.718 2.273-2.395 4.057.262 1.443 1.421 2.6 2.885 2.88.244.047.488.07.73.07.855 0 1.683-.285 2.347-.822a3.57 3.57 0 0 0 1.342-2.785c0-1.54-.994-2.894-2.454-3.4V4.726c0-.663-.551-1.202-1.228-1.202zm2.864 18.04c0 .841-.381 1.631-1.045 2.167a2.932 2.932 0 0 1-2.4.583c-1.134-.216-2.033-1.114-2.236-2.233-.266-1.472.637-2.861 2.101-3.231l.307-.078V4.725c0-.22.183-.4.41-.4.225 0 .408.18.408.4v14.046l.307.078c1.265.32 2.148 1.435 2.148 2.714zm-.818-6.816h2.454v.802h-2.454v-.802zm0-1.603h2.454v.802h-2.454v-.802zm0-1.604h2.454v.802h-2.454v-.802zm0-1.603h2.454v.802h-2.454v-.802zm0-1.604h2.454v.802h-2.454v-.802zM6.454 3.923c-1.354 0-2.455 1.08-2.455 2.406S5.1 8.734 6.454 8.734c1.353 0 2.454-1.079 2.454-2.405 0-1.327-1.1-2.406-2.454-2.406zm0 4.01c-.903 0-1.637-.72-1.637-1.604 0-.885.734-1.604 1.637-1.604.902 0 1.636.72 1.636 1.604 0 .884-.734 1.603-1.636 1.603zm-.41-6.014h.819v1.203h-.818V1.919zM3.562 2.927l.867.85-.578.567-.868-.85.579-.567zm-1.607 3H3.18v.803H1.954v-.802zM3.56 9.732l-.579-.567.868-.85.579.566-.868.85zm2.484-.195h.818v1.203h-.818V9.536zm3.012-1.223l.868.851-.579.567-.867-.85.578-.568zm.67-2.385h1.227v.802H9.726v-.802zm-.38-3l.578.566-.868.85-.578-.566.867-.85z"/></svg></svg>