<svg width="20" height="27" xmlns="http://www.w3.org/2000/svg" xmlns:xlink="http://www.w3.org/1999/xlink" xmlns:svgjs="http://svgjs.com/svgjs" viewBox="0.224 0 19.552 27" fill="#fff"><svg xmlns="http://www.w3.org/2000/svg" width="20" height="27" viewBox="1.962 1.919 18 24.856"><path paint-order="stroke fill markers" fill-rule="evenodd" d="M17.507 17.176v-.825h-.818v1.28l.204.117c1.388.788 2.25 2.25 2.25 3.815a4.33 4.33 0 0 1-1.38 3.177 4.504 4.504 0 0 1-3.297 1.23c-2.33-.088-4.268-2.019-4.321-4.304-.038-1.608.824-3.11 2.249-3.918l.204-.116V4.725c0-1.105.917-2.004 2.045-2.004s2.046.899 2.046 2.004v2.806h.818V4.725c0-1.547-1.285-2.806-2.864-2.806S11.78 3.178 11.78 4.725v12.45c-1.561.98-2.497 2.687-2.454 4.51.064 2.7 2.356 4.982 5.11 5.085a5.332 5.332 0 0 0 3.896-1.453 5.12 5.12 0 0 0 1.63-3.754c0-1.772-.935-3.432-2.455-4.387zM14.643 3.523c-.677 0-1.227.54-1.227 1.202v13.438c-1.7.583-2.718 2.273-2.395 4.057.262 1.442 1.42 2.6 2.885 2.88.244.047.488.07.73.07.855 0 1.683-.285 2.347-.822a3.57 3.57 0 0 0 1.342-2.785c0-1.54-.995-2.894-2.455-3.4V4.726c0-.663-.55-1.202-1.227-1.202zm2.864 18.04c0 .841-.381 1.631-1.045 2.167a2.932 2.932 0 0 1-2.4.584c-1.135-.217-2.033-1.115-2.236-2.234-.266-1.472.637-2.861 2.101-3.231l.307-.078V4.725c0-.22.183-.4.41-.4.225 0 .408.18.408.4v14.046l.307.078c1.264.32 2.148 1.435 2.148 2.714zm-.818-6.816h2.454v.802H16.69v-.802zm0-1.603h2.454v.802H16.69v-.802zm0-1.604h2.454v.802H16.69v-.802zm0-1.603h2.454v.802H16.69v-.802zm0-1.604h2.454v.802H16.69v-.802zM6.46 3.923c-1.353 0-2.454 1.08-2.454 2.406s1.1 2.405 2.454 2.405S8.916 7.655 8.916 6.33c0-1.327-1.1-2.406-2.455-2.406zm0 4.01c-.902 0-1.636-.72-1.636-1.604 0-.885.734-1.604 1.636-1.604.903 0 1.637.72 1.637 1.604 0 .884-.734 1.603-1.637 1.603zm-.409-6.014h.819v1.203h-.819V1.919zM3.57 2.927l.867.85-.578.567-.868-.85.579-.567zm-1.607 3h1.227v.803H1.962v-.802zm1.607 3.804l-.579-.567.868-.85.579.566-.868.85zm2.483-.195h.819v1.203h-.819V9.536zm3.013-1.223l.868.851-.579.567-.867-.85.578-.568zm.67-2.385h1.226v.802H9.734v-.802zm-.38-3l.578.566-.868.85-.578-.566.867-.85z"/></svg></svg>